<mxfile host="app.diagrams.net" modified="2024-01-03T00:20:40.807Z" agent="Mozilla/5.0 (Windows NT 10.0; Win64; x64) AppleWebKit/537.36 (KHTML, like Gecko) Chrome/120.0.0.0 Safari/537.36" etag="orB6RcqbxvXvxo40QUzr" version="22.1.16" type="device">
  <diagram name="Page-1" id="g6M1oHX1x2r_yiUw0uCC">
    <mxGraphModel dx="880" dy="1526" grid="1" gridSize="10" guides="1" tooltips="1" connect="1" arrows="1" fold="1" page="1" pageScale="1" pageWidth="850" pageHeight="1100" math="0" shadow="0">
      <root>
        <mxCell id="0" />
        <mxCell id="1" parent="0" />
        <mxCell id="71-jo-zmqkuM9QX7JaMQ-3" value="" style="edgeStyle=orthogonalEdgeStyle;rounded=0;orthogonalLoop=1;jettySize=auto;html=1;" edge="1" parent="1" source="71-jo-zmqkuM9QX7JaMQ-1" target="71-jo-zmqkuM9QX7JaMQ-2">
          <mxGeometry relative="1" as="geometry" />
        </mxCell>
        <mxCell id="71-jo-zmqkuM9QX7JaMQ-1" value="Mulai" style="strokeWidth=2;html=1;shape=mxgraph.flowchart.terminator;whiteSpace=wrap;" vertex="1" parent="1">
          <mxGeometry x="410" y="-250" width="100" height="60" as="geometry" />
        </mxCell>
        <mxCell id="71-jo-zmqkuM9QX7JaMQ-7" value="" style="edgeStyle=orthogonalEdgeStyle;rounded=0;orthogonalLoop=1;jettySize=auto;html=1;" edge="1" parent="1" source="71-jo-zmqkuM9QX7JaMQ-2" target="71-jo-zmqkuM9QX7JaMQ-6">
          <mxGeometry relative="1" as="geometry" />
        </mxCell>
        <mxCell id="71-jo-zmqkuM9QX7JaMQ-2" value="int N, j=0,k, temp A [100]" style="whiteSpace=wrap;html=1;strokeWidth=2;" vertex="1" parent="1">
          <mxGeometry x="400" y="-150" width="120" height="60" as="geometry" />
        </mxCell>
        <mxCell id="71-jo-zmqkuM9QX7JaMQ-9" value="" style="edgeStyle=orthogonalEdgeStyle;rounded=0;orthogonalLoop=1;jettySize=auto;html=1;" edge="1" parent="1" source="71-jo-zmqkuM9QX7JaMQ-6" target="71-jo-zmqkuM9QX7JaMQ-8">
          <mxGeometry relative="1" as="geometry" />
        </mxCell>
        <mxCell id="71-jo-zmqkuM9QX7JaMQ-22" style="edgeStyle=orthogonalEdgeStyle;rounded=0;orthogonalLoop=1;jettySize=auto;html=1;" edge="1" parent="1" source="71-jo-zmqkuM9QX7JaMQ-6" target="71-jo-zmqkuM9QX7JaMQ-14">
          <mxGeometry relative="1" as="geometry" />
        </mxCell>
        <mxCell id="71-jo-zmqkuM9QX7JaMQ-42" style="edgeStyle=orthogonalEdgeStyle;rounded=0;orthogonalLoop=1;jettySize=auto;html=1;" edge="1" parent="1" source="71-jo-zmqkuM9QX7JaMQ-6">
          <mxGeometry relative="1" as="geometry">
            <mxPoint x="730" y="686" as="targetPoint" />
          </mxGeometry>
        </mxCell>
        <mxCell id="71-jo-zmqkuM9QX7JaMQ-6" value="j&amp;lt;N-1" style="rhombus;whiteSpace=wrap;html=1;strokeWidth=2;" vertex="1" parent="1">
          <mxGeometry x="420" y="-50" width="80" height="80" as="geometry" />
        </mxCell>
        <mxCell id="71-jo-zmqkuM9QX7JaMQ-11" value="" style="edgeStyle=orthogonalEdgeStyle;rounded=0;orthogonalLoop=1;jettySize=auto;html=1;" edge="1" parent="1" source="71-jo-zmqkuM9QX7JaMQ-8" target="71-jo-zmqkuM9QX7JaMQ-10">
          <mxGeometry relative="1" as="geometry" />
        </mxCell>
        <mxCell id="71-jo-zmqkuM9QX7JaMQ-8" value="k=N-1" style="whiteSpace=wrap;html=1;strokeWidth=2;" vertex="1" parent="1">
          <mxGeometry x="400" y="70" width="120" height="60" as="geometry" />
        </mxCell>
        <mxCell id="71-jo-zmqkuM9QX7JaMQ-13" value="" style="edgeStyle=orthogonalEdgeStyle;rounded=0;orthogonalLoop=1;jettySize=auto;html=1;" edge="1" parent="1" source="71-jo-zmqkuM9QX7JaMQ-10" target="71-jo-zmqkuM9QX7JaMQ-12">
          <mxGeometry relative="1" as="geometry" />
        </mxCell>
        <mxCell id="71-jo-zmqkuM9QX7JaMQ-23" style="edgeStyle=orthogonalEdgeStyle;rounded=0;orthogonalLoop=1;jettySize=auto;html=1;entryX=1;entryY=0.5;entryDx=0;entryDy=0;" edge="1" parent="1" source="71-jo-zmqkuM9QX7JaMQ-10" target="71-jo-zmqkuM9QX7JaMQ-14">
          <mxGeometry relative="1" as="geometry" />
        </mxCell>
        <mxCell id="71-jo-zmqkuM9QX7JaMQ-10" value="k&amp;gt;=(j+1)" style="rhombus;whiteSpace=wrap;html=1;strokeWidth=2;" vertex="1" parent="1">
          <mxGeometry x="420" y="180" width="80" height="80" as="geometry" />
        </mxCell>
        <mxCell id="71-jo-zmqkuM9QX7JaMQ-25" value="" style="edgeStyle=orthogonalEdgeStyle;rounded=0;orthogonalLoop=1;jettySize=auto;html=1;" edge="1" parent="1" source="71-jo-zmqkuM9QX7JaMQ-12" target="71-jo-zmqkuM9QX7JaMQ-24">
          <mxGeometry relative="1" as="geometry" />
        </mxCell>
        <mxCell id="71-jo-zmqkuM9QX7JaMQ-33" style="edgeStyle=orthogonalEdgeStyle;rounded=0;orthogonalLoop=1;jettySize=auto;html=1;" edge="1" parent="1" source="71-jo-zmqkuM9QX7JaMQ-12">
          <mxGeometry relative="1" as="geometry">
            <mxPoint x="650" y="350" as="targetPoint" />
          </mxGeometry>
        </mxCell>
        <mxCell id="71-jo-zmqkuM9QX7JaMQ-12" value="A[k]&amp;lt;A[k-1]" style="rhombus;whiteSpace=wrap;html=1;strokeWidth=2;" vertex="1" parent="1">
          <mxGeometry x="420" y="310" width="80" height="80" as="geometry" />
        </mxCell>
        <mxCell id="71-jo-zmqkuM9QX7JaMQ-14" value="j++" style="whiteSpace=wrap;html=1;strokeWidth=2;" vertex="1" parent="1">
          <mxGeometry x="230" y="190" width="120" height="60" as="geometry" />
        </mxCell>
        <mxCell id="71-jo-zmqkuM9QX7JaMQ-27" value="" style="edgeStyle=orthogonalEdgeStyle;rounded=0;orthogonalLoop=1;jettySize=auto;html=1;" edge="1" parent="1" source="71-jo-zmqkuM9QX7JaMQ-24" target="71-jo-zmqkuM9QX7JaMQ-26">
          <mxGeometry relative="1" as="geometry" />
        </mxCell>
        <mxCell id="71-jo-zmqkuM9QX7JaMQ-24" value="temp=A[k]&lt;br&gt;A[k]=A[k-1]&lt;br&gt;A[k-1]=temp" style="whiteSpace=wrap;html=1;strokeWidth=2;" vertex="1" parent="1">
          <mxGeometry x="400" y="440" width="120" height="60" as="geometry" />
        </mxCell>
        <mxCell id="71-jo-zmqkuM9QX7JaMQ-30" style="edgeStyle=orthogonalEdgeStyle;rounded=0;orthogonalLoop=1;jettySize=auto;html=1;" edge="1" parent="1" source="71-jo-zmqkuM9QX7JaMQ-26">
          <mxGeometry relative="1" as="geometry">
            <mxPoint x="650" y="220" as="targetPoint" />
          </mxGeometry>
        </mxCell>
        <mxCell id="71-jo-zmqkuM9QX7JaMQ-26" value="k--" style="whiteSpace=wrap;html=1;strokeWidth=2;" vertex="1" parent="1">
          <mxGeometry x="400" y="540" width="120" height="60" as="geometry" />
        </mxCell>
        <mxCell id="71-jo-zmqkuM9QX7JaMQ-32" style="edgeStyle=orthogonalEdgeStyle;rounded=0;orthogonalLoop=1;jettySize=auto;html=1;entryX=1;entryY=0.5;entryDx=0;entryDy=0;" edge="1" parent="1" target="71-jo-zmqkuM9QX7JaMQ-10">
          <mxGeometry relative="1" as="geometry">
            <mxPoint x="650" y="220" as="sourcePoint" />
            <mxPoint x="680" y="235" as="targetPoint" />
            <Array as="points">
              <mxPoint x="510" y="220" />
              <mxPoint x="510" y="220" />
            </Array>
          </mxGeometry>
        </mxCell>
        <mxCell id="71-jo-zmqkuM9QX7JaMQ-34" value="True" style="text;html=1;align=center;verticalAlign=middle;resizable=0;points=[];autosize=1;strokeColor=none;fillColor=none;" vertex="1" parent="1">
          <mxGeometry x="460" y="30" width="50" height="30" as="geometry" />
        </mxCell>
        <mxCell id="71-jo-zmqkuM9QX7JaMQ-35" value="False" style="text;html=1;align=center;verticalAlign=middle;resizable=0;points=[];autosize=1;strokeColor=none;fillColor=none;" vertex="1" parent="1">
          <mxGeometry x="360" y="200" width="50" height="30" as="geometry" />
        </mxCell>
        <mxCell id="71-jo-zmqkuM9QX7JaMQ-36" value="False" style="text;html=1;align=center;verticalAlign=middle;resizable=0;points=[];autosize=1;strokeColor=none;fillColor=none;" vertex="1" parent="1">
          <mxGeometry x="545" y="330" width="50" height="30" as="geometry" />
        </mxCell>
        <mxCell id="71-jo-zmqkuM9QX7JaMQ-37" value="True" style="text;html=1;align=center;verticalAlign=middle;resizable=0;points=[];autosize=1;strokeColor=none;fillColor=none;" vertex="1" parent="1">
          <mxGeometry x="450" y="268" width="50" height="30" as="geometry" />
        </mxCell>
        <mxCell id="71-jo-zmqkuM9QX7JaMQ-43" style="edgeStyle=orthogonalEdgeStyle;rounded=0;orthogonalLoop=1;jettySize=auto;html=1;" edge="1" parent="1" source="71-jo-zmqkuM9QX7JaMQ-39">
          <mxGeometry relative="1" as="geometry">
            <mxPoint x="730" y="680" as="targetPoint" />
          </mxGeometry>
        </mxCell>
        <mxCell id="71-jo-zmqkuM9QX7JaMQ-39" value="End" style="strokeWidth=2;html=1;shape=mxgraph.flowchart.terminator;whiteSpace=wrap;" vertex="1" parent="1">
          <mxGeometry x="410" y="640" width="100" height="60" as="geometry" />
        </mxCell>
        <mxCell id="71-jo-zmqkuM9QX7JaMQ-40" style="edgeStyle=orthogonalEdgeStyle;rounded=0;orthogonalLoop=1;jettySize=auto;html=1;entryX=0.5;entryY=0;entryDx=0;entryDy=0;entryPerimeter=0;" edge="1" parent="1" source="71-jo-zmqkuM9QX7JaMQ-26" target="71-jo-zmqkuM9QX7JaMQ-39">
          <mxGeometry relative="1" as="geometry" />
        </mxCell>
        <mxCell id="71-jo-zmqkuM9QX7JaMQ-45" value="False" style="text;html=1;align=center;verticalAlign=middle;resizable=0;points=[];autosize=1;strokeColor=none;fillColor=none;" vertex="1" parent="1">
          <mxGeometry x="585" y="-30" width="50" height="30" as="geometry" />
        </mxCell>
      </root>
    </mxGraphModel>
  </diagram>
</mxfile>
